<svg xmlns="http://www.w3.org/2000/svg" width="192" height="192" viewBox="0 0 192 192" version="1.1"><path d="M 37.200 5.200 L 36 6.400 36 76.500 L 36 146.600 37.200 147.800 L 38.400 149 44.618 149 L 50.836 149 52.418 148.393 L 54 147.786 54 145.500 L 54 143.214 52.418 142.607 L 50.836 142 46.918 142 L 43 142 43 76.500 L 43 11 79.129 11 L 115.258 11 119.155 14.521 L 123.053 18.042 125.026 16.986 L 127 15.930 127 14.677 L 127 13.425 122.216 8.712 L 117.431 4 77.916 4 L 38.400 4 37.200 5.200 M 58.667 21.667 L 58 22.333 58 93.560 L 58 164.786 59.562 165.385 L 61.123 165.984 114.765 165.945 L 168.408 165.906 169.704 164.831 L 171 163.755 171 108.116 L 171 52.477 155.239 36.738 L 139.477 21 99.405 21 L 59.333 21 58.667 21.667 M 64 93.500 L 64 159 114 159 L 164 159 164 108.024 L 164 57.048 150.457 57.181 L 136.915 57.315 135.868 56.268 L 134.822 55.222 134.937 41.611 L 135.053 28 99.527 28 L 64 28 64 93.500 M 141 41.500 L 141 50 150.129 50 L 159.259 50 150.942 41.500 L 142.625 33 141.812 33 L 141 33 141 41.500" stroke="none" fill="#dc3a2c" fill-rule="evenodd"/><path d="M 36.571 4.571 L 35 6.143 35 76.500 L 35 146.857 36.571 148.429 L 38.143 150 45.371 150 L 52.600 150 53.800 148.800 L 55 147.600 55 145.335 L 55 143.070 53.066 142.035 L 51.131 141 46.816 141.160 L 42.500 141.320 46 141.680 L 49.500 142.040 51.750 142.539 L 54 143.038 54 145.412 L 54 147.786 52.418 148.393 L 50.836 149 44.618 149 L 38.400 149 37.200 147.800 L 36 146.600 36 76.500 L 36 6.400 37.200 5.200 L 38.400 4 78.055 4 L 117.710 4 122.855 9.440 L 128 14.880 128 13.797 L 128 12.714 123.143 7.857 L 118.286 3 78.214 3 L 38.143 3 36.571 4.571 M 78.893 11.750 L 115.286 12.025 119.169 15.534 L 123.053 19.042 125.026 17.986 L 127 16.930 127 16.430 L 127 15.930 125.026 16.986 L 123.053 18.042 119.155 14.521 L 115.258 11 78.879 11.237 L 42.500 11.474 78.893 11.750 M 57.035 21.934 L 56 23.869 56 93 L 56 162.131 57.035 164.066 L 58.070 166 59.285 165.985 L 60.500 165.969 59.243 165.172 L 57.987 164.374 58.243 92.937 L 58.500 21.500 98.977 21.238 L 139.454 20.977 155.227 36.727 L 171 52.477 171 108.038 L 171 163.600 169.750 165.002 L 168.500 166.404 170.250 165.079 L 172 163.755 172 108.139 L 172 52.522 155.761 36.261 L 139.523 20 98.797 20 L 58.070 20 57.035 21.934 M 64.243 93.250 L 64 159 114 159 L 164 159 164 158.250 L 164 157.500 114.507 157.768 L 65.014 158.037 64.750 92.768 L 64.485 27.500 64.243 93.250 M 19.200 39.200 L 18 40.400 18 111.665 L 18 182.930 19.934 183.965 L 21.869 185 75.500 185 L 129.131 185 131.066 183.965 L 133 182.930 133 176 L 133 169.070 131 168 L 129 166.930 127 168 L 125 169.070 125 172.535 L 125 176 75.493 176 L 25.985 176 26.243 111.260 L 26.500 46.519 29.500 46.003 L 32.500 45.487 32.827 43.189 L 33.154 40.890 31.954 39.445 L 30.755 38 25.578 38 L 20.400 38 19.200 39.200 M 75.571 41.571 L 74 43.143 74 44.371 L 74 45.600 75.200 46.800 L 76.400 48 87.500 48 L 98.600 48 99.800 46.800 L 101 45.600 101 44.371 L 101 43.143 99.429 41.571 L 97.857 40 87.500 40 L 77.143 40 75.571 41.571 M 75.200 61.200 L 74 62.400 74 64.165 L 74 65.930 75.934 66.965 L 77.869 68 100.684 67.985 L 123.500 67.969 124.600 67.235 L 125.700 66.500 126.215 65 L 126.730 63.500 125.830 61.750 L 124.930 60 100.665 60 L 76.400 60 75.200 61.200 M 75.544 80.344 L 73.705 81.689 74.372 84.344 L 75.038 87 77.319 87 L 79.600 87 80.800 85.800 L 82 84.600 82 82.835 L 82 81.070 80.066 80.035 L 78.131 79 77.757 79 L 77.382 79 75.544 80.344 M 89.596 80.306 L 87.810 81.612 88.155 84.056 L 88.500 86.500 114.909 87 L 141.319 87.500 147.409 87 L 153.500 86.500 153.845 84.056 L 154.190 81.612 152.404 80.306 L 150.618 79 121 79 L 91.382 79 89.596 80.306 M 75.865 99.807 L 74 101.113 74 103.022 L 74 104.930 75.934 105.965 L 77.869 107 114.734 107 L 151.600 107 152.800 105.800 L 154 104.600 154 102.269 L 154 99.937 152.750 99.519 L 151.500 99.102 114.615 98.801 L 77.730 98.500 75.865 99.807 M 75.200 119.200 L 74 120.400 74 122 L 74 123.600 75.200 124.800 L 76.400 126 113.618 126 L 150.836 126 152.418 125.393 L 154 124.786 154 122.593 L 154 120.400 152.800 119.200 L 151.600 118 114 118 L 76.400 118 75.200 119.200 M 82.341 137.792 L 75.182 138.084 74.568 139.683 L 73.955 141.282 74.534 143.106 L 75.113 144.931 78.306 145.507 L 81.500 146.084 102.879 145.792 L 124.258 145.500 125.626 143.438 L 126.995 141.375 125.595 139.461 L 124.196 137.547 106.848 137.524 L 89.500 137.500 82.341 137.792" stroke="none" fill="#fc8278" fill-rule="evenodd"/></svg>