<?xml version="1.0" standalone="no"?>
<!DOCTYPE svg PUBLIC "-//W3C//DTD SVG 20010904//EN"
 "http://www.w3.org/TR/2001/REC-SVG-20010904/DTD/svg10.dtd">
<svg version="1.0" xmlns="http://www.w3.org/2000/svg"
 width="238.000000pt" height="238.000000pt" viewBox="0 0 238.000000 238.000000"
 preserveAspectRatio="xMidYMid meet">
<metadata>
Created by potrace 1.14, written by Peter Selinger 2001-2017
</metadata>
<g transform="translate(0.000000,238.000000) scale(0.100000,-0.100000)"
fill="#000000" stroke="none">
<path d="M462 2318 c-9 -9 -12 -219 -12 -882 0 -479 4 -877 8 -884 6 -9 35
-12 108 -10 96 3 99 4 102 27 5 35 -22 51 -85 51 l-53 0 0 815 0 815 448 0
448 0 35 -36 c46 -48 64 -57 89 -44 35 19 24 53 -34 109 l-55 51 -493 0 c-371
0 -497 -3 -506 -12z"/>
<path d="M722 2108 c-16 -16 -18 -1729 -2 -1759 10 -18 29 -19 695 -19 666 0
685 1 695 19 6 13 10 251 10 701 l0 682 -196 194 -196 194 -497 0 c-373 0
-500 -3 -509 -12z m948 -237 c0 -141 3 -172 16 -185 13 -13 44 -16 185 -16
l169 0 -2 -627 -3 -628 -620 0 -620 0 -3 813 -2 812 440 0 440 0 0 -169z m200
-6 l105 -105 -113 0 -112 0 0 105 c0 58 3 105 8 105 4 0 54 -47 112 -105z"/>
<path d="M936 1845 c-16 -44 17 -55 163 -55 104 0 136 11 129 46 -3 18 -14 19
-144 22 -120 2 -143 0 -148 -13z"/>
<path d="M947 1613 c-4 -3 -7 -16 -7 -28 0 -18 7 -24 38 -29 56 -9 545 -7 560
3 8 4 12 19 10 32 l-3 24 -296 3 c-162 1 -298 -1 -302 -5z"/>
<path d="M941 1367 c-24 -29 17 -70 46 -46 8 7 13 22 11 33 -4 25 -40 33 -57
13z"/>
<path d="M1105 1360 c-16 -49 -9 -50 391 -50 325 0 375 2 388 16 9 8 16 19 16
23 0 29 -31 31 -406 31 -377 0 -383 0 -389 -20z"/>
<path d="M939 1124 c-9 -11 -10 -20 -2 -32 9 -15 54 -17 476 -20 463 -2 466
-2 477 19 27 49 24 49 -475 49 -410 0 -464 -2 -476 -16z"/>
<path d="M939 884 c-9 -11 -10 -20 -2 -32 9 -16 52 -17 478 -17 426 0 469 1
478 17 8 12 7 21 -2 32 -12 14 -66 16 -476 16 -410 0 -464 -2 -476 -16z"/>
<path d="M941 646 c-9 -11 -10 -20 -1 -35 10 -20 18 -21 305 -21 268 0 295 2
304 17 6 11 6 24 0 35 -9 17 -32 18 -303 18 -243 0 -296 -2 -305 -14z"/>
<path d="M240 1871 c-7 -13 -10 -306 -10 -879 0 -713 2 -861 14 -871 9 -8 200
-10 697 -9 l684 3 3 83 c2 69 0 83 -14 89 -30 11 -49 -11 -52 -61 l-3 -46
-625 0 -624 0 0 819 0 820 36 3 c44 4 65 28 45 52 -10 12 -31 16 -77 16 -52 0
-65 -3 -74 -19z"/>
</g>
</svg>
