<?xml version="1.0" standalone="no"?>
<!DOCTYPE svg PUBLIC "-//W3C//DTD SVG 20010904//EN"
 "http://www.w3.org/TR/2001/REC-SVG-20010904/DTD/svg10.dtd">
<svg version="1.0" xmlns="http://www.w3.org/2000/svg"
 width="730.000000pt" height="730.000000pt" viewBox="0 0 730.000000 730.000000"
 preserveAspectRatio="xMidYMid meet">
<metadata>
Created by potrace 1.14, written by Peter Selinger 2001-2017
</metadata>
<g transform="translate(0.000000,730.000000) scale(0.100000,-0.100000)"
fill="#000000" stroke="none">
<path d="M3725 7104 c-5 -1 -89 -5 -185 -8 -194 -5 -282 -12 -395 -30 -16 -3
-48 -8 -70 -11 -301 -42 -703 -176 -1022 -341 -101 -52 -333 -189 -343 -203
-3 -3 -18 -15 -35 -25 -40 -25 -221 -162 -265 -201 -208 -182 -377 -360 -521
-550 -59 -78 -179 -253 -179 -262 0 -3 -6 -14 -14 -22 -14 -16 -39 -60 -90
-156 -14 -26 -30 -53 -34 -59 -15 -20 -128 -272 -147 -326 -5 -14 -19 -48 -30
-75 -13 -30 -64 -187 -70 -215 -2 -8 -11 -41 -20 -74 -9 -32 -18 -64 -19 -70
-1 -6 -5 -20 -9 -31 -7 -21 -51 -259 -62 -334 -26 -178 -36 -509 -21 -726 6
-96 10 -129 32 -280 12 -87 46 -251 55 -267 5 -10 9 -31 9 -46 0 -16 3 -32 7
-36 4 -3 8 -14 9 -24 5 -35 80 -267 92 -287 4 -5 7 -13 8 -17 1 -5 3 -10 4
-13 1 -3 3 -8 4 -12 7 -32 68 -172 128 -293 107 -213 183 -336 345 -560 114
-156 353 -408 527 -554 101 -85 376 -286 392 -286 1 0 38 -22 81 -48 100 -62
268 -147 408 -207 93 -40 376 -140 425 -150 8 -2 56 -13 105 -25 50 -12 99
-24 110 -26 35 -7 188 -33 230 -39 22 -4 50 -8 63 -10 148 -25 693 -25 818 -1
12 2 45 7 74 11 29 4 62 9 74 11 12 2 35 6 51 9 17 2 41 7 55 10 14 3 41 8 60
11 19 4 69 15 110 26 41 11 93 24 115 29 105 26 448 153 476 176 8 7 20 13 26
13 10 0 207 98 273 137 101 59 218 133 275 176 5 4 42 31 80 59 293 217 580
517 791 828 114 168 257 429 323 590 12 30 26 64 31 75 12 28 91 256 95 275 1
3 8 30 17 60 10 30 19 66 22 80 3 14 14 63 25 110 22 95 28 125 50 270 34 218
37 728 5 929 -2 14 -6 40 -9 56 -2 17 -7 48 -10 70 -4 22 -8 47 -10 55 -2 8
-7 30 -10 48 -3 18 -12 61 -21 95 -8 34 -16 71 -18 82 -11 70 -95 318 -168
500 -30 75 -142 299 -150 303 -5 2 -8 9 -8 14 0 24 -244 399 -294 451 -6 6
-27 32 -46 57 -19 25 -37 47 -40 50 -3 3 -41 45 -85 94 -44 49 -118 126 -164
170 -112 107 -106 102 -191 171 -41 33 -77 62 -80 65 -51 52 -431 300 -459
300 -5 0 -11 3 -13 8 -5 11 -222 116 -363 175 -63 26 -269 96 -345 118 -62 17
-63 17 -86 22 -11 3 -49 12 -85 20 -73 17 -158 34 -209 42 -19 3 -46 8 -60 10
-14 3 -43 7 -65 9 -22 3 -67 7 -100 10 -33 4 -100 8 -148 11 -49 3 -92 7 -95
9 -4 2 -11 2 -17 0z"/>
</g>
</svg>
